/* XPM */
static char *result[] = {
/* columns rows colors chars-per-pixel */
"50 50 90 1 ",
"  c #181713",
". c #1B1A16",
"X c #1E1D19",
"o c #221D17",
"O c #211F1A",
"+ c #23221D",
"@ c #2C231A",
"# c #33251B",
"$ c #35291E",
"% c #262622",
"& c #282724",
"* c #2A2925",
"= c #2E2D29",
"- c #302F2B",
"; c #33322E",
": c #363532",
"> c #383734",
", c #3A3936",
"< c #3E3D3A",
"1 c #522C23",
"2 c #47382E",
"3 c #4D382D",
"4 c #5E3527",
"5 c #563927",
"6 c #403F3C",
"7 c #633428",
"8 c #7A3F2E",
"9 c #41403E",
"0 c #67422B",
"q c #69432B",
"w c #7C4C3C",
"e c #454441",
"r c #4B4A46",
"t c #4C4C49",
"y c #51514D",
"u c #565553",
"i c #585754",
"p c #5D5D5A",
"a c #665D57",
"s c #635E5B",
"d c #62615F",
"f c #656462",
"g c #6A6966",
"h c #6D6C6A",
"j c #757573",
"k c #7D7D7C",
"l c #9D4234",
"z c #895232",
"x c #A44636",
"c c #A65938",
"v c #BD543C",
"b c #B5633C",
"n c #BD643D",
"m c #BA6C3F",
"M c #C45C3E",
"N c #985E4C",
"B c #B55141",
"V c #9B655D",
"C c #8D7D7A",
"Z c #C36541",
"A c #CB6540",
"S c #C46C41",
"D c #CE6941",
"F c #D37744",
"G c #D97745",
"H c #D87945",
"J c #848483",
"K c #888787",
"L c #8C8C8C",
"P c #949393",
"I c #9C9C9C",
"U c #A1A09F",
"Y c #A5A5A4",
"T c #A8A7A6",
"R c #A9A8A7",
"E c #ADADAC",
"W c #B1B0AF",
"Q c #B5B5B4",
"! c #B8B8B7",
"~ c #BCBCBB",
"^ c #C4C3C3",
"/ c #CBCBCB",
"( c #D4D4D4",
") c #DCDCDC",
"_ c #E0DFDF",
"` c #E5E5E4",
"' c #ECECEC",
"] c #F4F4F4",
"[ c #FCFCFC",
"{ c None",
/* pixels */
"{{{{{{{{{{{{{{{{{{{{{{{{{{{{{{{{{{{{{{{{{{{{{{{{{{",
"{{{{{{{{{{{{{{{{{{{{{{{{{{{{{{{{{{{{{{{{{{{{{{{{{{",
"{{{{{{{{{{{{{{{{{{{{{{{{{{{{{{{{{{{{{{{{{{{{{{{{{{",
"{{{{{{{{{{{{{{{{{{{{{{{{{{{{{{{{{{{{{{{{{{{{{{{{{{",
"{{{{{{{{{{{{{{{{{{{{{{{{{{{{{{{{{{{{{{{{{{{{{{{{{{",
"{{{{{{{{{{{{{{{{{{{{{{{{{{{{{{{{{{{{{{{{{{{{{{{{{{",
"{{{{{{{{{{{{{{{{{{{{{{{{{{{{{{{{{{{{{{{{{{{{{{{{{{",
"{{{{{{{{{{{{{{{{{{{{{{{{{{{{{{{{{{{{{{{{{{{{{{{{{{",
"{{{{{{{{{{{{{{{{{{{{{{{{{{{{{{{{{{{{{{{{{{{{{{{{{{",
"{{{{{{{{{{{{{{{{{{{{{{=XX&{{{{{{{{{{{{{{{{{{{{{{{{",
"{{{{{{{{{{{{{{{{{{{{{{fddd{{{{{{{{{{{{{{{{{{{{{{{{",
"{{{{{{{{{{{{{{{{{{{{{+R[[E+{{{{{{{{{{{{{{{{{{{{{{{",
"{{{{{{{{{{{{{{{{{{{>gY)[^QYg>{{{{{{{{{{{{{{{{{{{{{",
"{{{{{{{{{{{{{{{{{{{>j[[`Y~[h+{{{{{{{{{{{{{{{{{{{{{",
"{{{{{{{{{{{{{{{{{,<^'[^Y`][hO{{{{{{{{{{{{{{{{{{{{{",
"{{{{{{{{{{{{{{{{{;;_])~Q()(p+{{{{{{{{{{{{{{{{{{{{{",
"{{{{{{{{{{{{{{{{{;;_)L(]ILL9+{{{{{{{{{{{{{{{{{{{{{",
"{{{{{{{{{{{{{{{{-KE!ELR~(((pX*****&*&*&%{{{{{{{{{{",
"{{{{{{{{{{{{{{{{XY[IPIPU)``j;:;&;::-*;::<{{{{{{{{{",
"{{{{{{{{{{{{{{{{.Y[IW]]_y>>Y``~k~``~k^``P+{{{{{{{{",
"{{{{{{{{{{{{{{{yhE(~QWWI=:h/[)/Q'[)~K^)[Y.{{{{{{{{",
"{{{{{{{{{{{{{{Xd]~P]W+XX.h[['IQ[['PKKKU[UO{{{{{{{{",
"{{{{{{{{{{{{{{Xd[Lefgf>=I/[/Q(/WQQ(()(/hf{{{{{{{{{",
"{{{{{{{{{{{{{{Xi_g.+eJ9;(]'EP`(PPY]]``^:*{{{{{{{{{",
"{{{{{{{{{{{{{{X+:+%jg*.%JPPLLP!'][[W:;>{{{{{{{{{{{",
"{{{{{{{{{{{{{{t>X:rdt.ykW!QQQQ([^YRJ==;{{{{{{{{{{{",
"{{{{{{{{{{{{{{PhXdK=.XT[[[[[[[[[g.X%{{{{{{{{{{{{{{",
"{{{{{{{{{{{{{;<:XdLht.tfffdffdfds{{{{{{{{{{{{{{{{{",
"{{{{{{{{{{{{3$X.Xukkf=X     .%%*{{{{{{{{{{{{{{{{{{",
"{{{{{{{{{{{BZm$ .+%+eke ....%jJJKLLPL{{{{{{{{{{{{{",
"{{{{{{{{{{wMcz44071o6Le..X.>tppppfKLL{{{{{{{{{{{{{",
"{{{{{{{{{%5GqOlMHMx#6Ke..XXfk*.XX+{{{{{{{{{{{{{{{{",
"{{{{{{{{-fa5*@bAvAn#%<&..:fkKhg{{{=%&{{{{{{{{{{{{{",
"{{{{{{{;*JhXo#bAvAS2% &=.eLLLKP{{{:=={{{{{{{{{{{{{",
"{{{{{{{{{{{Oo#xMGMBCd.pj%eL{{LKLLKJkk6+{{{{{{{{{{{",
"{{{{{{{{{{{-+o7qzNVautjk%<P{{PPPPPPPPt={{{{{{{{{{{",
"{{{{{{{{{{{{*+OOXfJ*9K{{X&{{{{{{{{{{{{{{{{{{{{{{{{",
"{{{{{{{{{{{{{{{{{{{%<K{{O&{{{{{{{{{{{{{{{{{{{{{{{{",
"{{{{{{{{{{{{{{{{{{{:tP{{=:{{{{{{{{{{{{{{{{{{{{{{{{",
"{{{{{{{{{{{{{{{{{;&jK{{{{{{{{{{{{{{{{{{{{{{{{{{{{{",
"{{{{{{{{{{{{{{{{{{&k{{{{{{{{{{{{{{{{{{{{{{{{{{{{{{",
"{{{{{{{{{{{{{{{{{{{{{{{{{{{{{{{{{{{{{{{{{{{{{{{{{{",
"{{{{{{{{{{{{{{{{{{{{{{{{{{{{{{{{{{{{{{{{{{{{{{{{{{",
"{{{{{{{{{{{{{{{{{{{{{{{{{{{{{{{{{{{{{{{{{{{{{{{{{{",
"{{{{{{{{{{{{{{{{{{{{{{{{{{{{{{{{{{{{{{{{{{{{{{{{{{",
"{{{{{{{{{{{{{{{{{{{{{{{{{{{{{{{{{{{{{{{{{{{{{{{{{{",
"{{{{{{{{{{{{{{{{{{{{{{{{{{{{{{{{{{{{{{{{{{{{{{{{{{",
"{{{{{{{{{{{{{{{{{{{{{{{{{{{{{{{{{{{{{{{{{{{{{{{{{{",
"{{{{{{{{{{{{{{{{{{{{{{{{{{{{{{{{{{{{{{{{{{{{{{{{{{",
"{{{{{{{{{{{{{{{{{{{{{{{{{{{{{{{{{{{{{{{{{{{{{{{{{^"
};
