/* XPM */
static char *result[] = {
/* columns rows colors chars-per-pixel */
"50 50 146 2 ",
"   c #010201",
".  c #050A06",
"X  c #070E08",
"o  c #0C0D0D",
"O  c #071208",
"+  c #0A140B",
"@  c #0B190C",
"#  c #0F0F10",
"$  c #141414",
"%  c #121E13",
"&  c #171718",
"*  c #1D1D1E",
"=  c #251D1B",
"-  c #112312",
";  c #132D15",
":  c #1E201E",
">  c #162F18",
",  c #173218",
"<  c #19361B",
"1  c #1B3B1D",
"2  c #1F1E20",
"3  c #1F2020",
"4  c #242425",
"5  c #292C21",
"6  c #2B2D2C",
"7  c #3B2929",
"8  c #293E2A",
"9  c #3C372D",
"0  c #353536",
"q  c #383739",
"w  c #3A3A3A",
"e  c #1C401E",
"r  c #1E4120",
"t  c #224C24",
"y  c #2A422C",
"u  c #255227",
"i  c #275529",
"p  c #275A29",
"a  c #295E2C",
"s  c #2E4F30",
"d  c #3C4F3D",
"f  c #335C35",
"g  c #3C543D",
"h  c #3D5E3F",
"j  c #2C622F",
"k  c #2E6530",
"l  c #316633",
"z  c #326D35",
"x  c #3D603F",
"c  c #347536",
"v  c #357638",
"b  c #3C763E",
"n  c #367B39",
"m  c #387E3B",
"M  c #3E7440",
"N  c #434444",
"B  c #484749",
"V  c #4A4C4B",
"C  c #465747",
"Z  c #455B46",
"A  c #475048",
"S  c #4A524B",
"D  c #525252",
"F  c #575858",
"G  c #5A5A5B",
"H  c #436445",
"J  c #446946",
"K  c #4E6B4F",
"L  c #407242",
"P  c #557648",
"I  c #526D53",
"U  c #5C6B5D",
"Y  c #637F51",
"T  c gray38",
"R  c #6B6B6C",
"E  c #747474",
"W  c #777978",
"Q  c #7A7B7B",
"!  c #3A823D",
"~  c #3C893F",
"^  c #3D8640",
"/  c #3E8A41",
"(  c #53834A",
")  c #429545",
"_  c #449A47",
"`  c #459C48",
"'  c #4A9F4C",
"]  c #638552",
"[  c #47A24A",
"{  c #49A64D",
"}  c #4BAD4F",
"|  c #4BB04F",
" . c #4CAF50",
".. c #54AF54",
"X. c #58AE56",
"o. c #5FAD59",
"O. c #4CB350",
"+. c #63AD5B",
"@. c #73AC63",
"#. c #7FA868",
"$. c #86A76C",
"%. c #87A96C",
"&. c #90A66F",
"*. c #97A573",
"=. c #9BA575",
"-. c #A0A477",
";. c #A1A578",
":. c #848684",
">. c #868987",
",. c #878988",
"<. c #8B8B8B",
"1. c #8F9190",
"2. c #949595",
"3. c #929893",
"4. c #979898",
"5. c #9B9C9B",
"6. c #A3A4A3",
"7. c #A7A8A7",
"8. c #AAACAA",
"9. c #B5B6B6",
"0. c #B7B9B7",
"q. c #B7B8B8",
"w. c #BABABA",
"e. c #D88D8D",
"r. c #C69185",
"t. c #D1978B",
"y. c #DC9790",
"u. c #DA9C91",
"i. c #E59394",
"p. c #E39A94",
"a. c #E99A97",
"s. c #EE9999",
"d. c #F1999A",
"f. c #BFC0BF",
"g. c #C4C4C4",
"h. c #CCCCCC",
"j. c #D3D3D3",
"k. c #DEDEDE",
"l. c #DFE0DF",
"z. c #E3E3E3",
"x. c #E7E8E7",
"c. c #EDEDED",
"v. c #EFF0EF",
"b. c #F3F3F3",
"n. c #FBFBFB",
"m. c None",
/* pixels */
"m.m.m.m.m.m.m.m.m.m.m.m.m.m.m.m.m.m.m.m.m.m.m.m.m.m.m.m.m.m.m.m.m.m.m.m.m.m.m.m.m.m.m.m.m.m.m.m.m.m.",
"m.m.m.m.m.m.m.m.m.m.m.m.m.m.m.m.m.m.m.m.m.m.m.m.m.m.m.m.m.m.m.m.m.m.m.m.m.m.m.m.m.m.m.m.m.m.m.m.m.m.",
"m.m.m.m.m.m.m.m.m.m.m.m.m.m.m.m.m.m.m.m.m.m.m.m.m.m.m.m.m.m.m.m.m.m.m.m.m.m.m.m.m.m.m.m.m.m.m.m.m.m.",
"m.m.m.m.m.m.m.m.m.m.m.m.m.m.m.m.m.m.m.m.m.m.m.m.m.m.m.m.m.m.m.m.m.m.m.m.m.m.m.m.m.m.m.m.m.m.m.m.m.m.",
"m.m.m.m.m.m.m.m.m.m.m.m.m.m.m.m.m.m.m.m.m.m.m.m.m.m.m.m.m.m.m.m.m.m.m.m.m.m.m.m.m.m.m.m.m.m.m.m.m.m.",
"m.m.m.m.m.m.m.m.m.m.m.m.m.m.m.n.b.b.b.m.m.m.m.m.m.m.m.m.m.m.m.m.m.n.b.b.n.m.m.m.m.m.m.m.m.m.m.m.m.m.",
"m.m.m.m.m.m.m.m.m.m.m.b.x.j.j.j.j.j.j.v.v.m.m.m.m.m.m.m.m.b.c.j.j.j.j.j.j.c.v.m.m.m.m.m.m.m.m.m.m.m.",
"m.m.m.m.m.m.m.m.m.m.m.n.4.$ $ $ & $ & 9.n.m.m.m.m.m.m.m.m.n.5.$ $ & $ $ $ 7.n.m.m.m.m.m.m.m.m.m.m.m.",
"m.m.m.m.m.m.m.m.m.b.b.b.>..   .   . . 6.b.b.b.m.m.m.m.b.b.b.3.  . . .   . 5.b.b.b.m.m.m.m.m.m.m.m.m.",
"m.m.m.m.m.m.m.m.m.b.E q x / ~ ~ / ~ ~ g 0 2.n.m.m.m.m.n.Q 0 h / ~ ~ ~ ~ ~ g 0 <.b.m.m.m.m.m.m.m.m.m.",
"m.m.m.m.m.m.m.b.n.n.N   u O.O.| O.| } 1   E n.n.n.n.n.n.V   t O.O.| | | | e   R n.n.b.m.m.m.m.m.m.m.",
"m.m.m.m.m.m.m.x.,.W J j ~ | | | | | } n a I Q Q Q Q Q Q J j ! | | | | } | ! a K Q 5.b.m.m.m.m.m.m.m.",
"m.m.m.m.m.m.b.k.&   ! O.| | | | O.| | O.O.j             n O. .O.| O.| } | O.O.j   q v.m.m.m.m.m.m.m.",
"m.m.m.m.m.m.c.k.*   ! O.| | [ c v v v [ | m 1 1 1 1 1 1 )  .) c c c n } | O.O.k   w v.m.m.m.m.m.m.m.",
"m.m.m.m.m.m.b.k.*   m O.| | ! .       v | | } } } } } }  .O.j       + ) O.| O.l   w v.m.m.m.m.m.m.m.",
"m.m.m.m.m.m.b.k.4   m | | O.! .       v | | | | } } | | } O.j       X ) O.| O.k   w b.m.m.m.m.m.m.m.",
"m.m.m.m.m.m.b.k.*   ! | | | !         c O.| | | | | | | | O.j       X / O.| O.k   w v.m.m.m.m.m.m.m.",
"m.m.m.m.m.m.m.k.4 o m } | | ! X   . . v O.| | | | | | | | O.k   .   + ) O.| } l   N b.m.m.m.m.m.m.m.",
"m.m.m.m.m.m.m.b.g.0.C ; z O.[ ! ! ! ! ` | | | | | | | | | O.` ! ! ! ^ { | j ; U w.h.b.m.m.m.m.m.m.m.",
"m.m.m.m.m.m.m.n.n.n.B   u | | | | O.O.O.| | | | | | | | | | O.| O.O.O. .| 1   R n.n.b.m.m.m.m.m.m.m.",
"m.m.m.m.m.m.x.c.<.E H p ] -.-.-.*.X.| | | | | | | | | | | | | | +.=.-.=.=.P p K Q 4.b.m.m.m.m.m.m.m.",
"m.m.m.m.m.b.n.z.*   ! O.=.d.d.d.p.+.| | | | | | | | | | | | O.| @.a.d.d.s.$.O.k   w b.b.v.m.m.m.m.m.",
"m.m.m.m.b.x.f.7.y , / O.=.s.s.s.y.( ! [ | | | | | | | | | O._ n ] p.s.s.s.$.| n ; g 0.g.b.c.m.m.m.m.",
"m.m.m.m.n.w.o % _ } } | =.d.s.d.e.=   v | O.| O.O.O.O.O.O.O.j   7 i.s.s.s.$.| } } ~ o * j.b.m.m.m.m.",
"m.m.m.m.n.9.. + _ O.} | &.u.u.u.r.5 + l _ _ _ _ _ _ _ _ _ _ a + 9 t.u.u.u.#.| | | ~ . $ j.b.m.m.m.m.",
"m.m.m.m.n.9.  + _ O.O.} ..+.o.o.+.` _ t + + + + + + + + + + u _ [ o.o.o.o...} } O.~   $ j.b.m.m.m.m.",
"m.m.m.m.n.w.# % ) { } | | | | | } }  .1   .   . . .   . .   u O.| | | } | | | } } ~ + * j.b.m.m.m.m.",
"m.m.m.m.v.c.g.8.8 ; ) O.| | | | | }  .) ! ! ~ ~ ! ! ! ! ! ! )  .| | | | | | O.n ; d q.g.b.x.m.m.m.m.",
"m.m.m.m.m.v.n.k.*   m O.O.O.| | O.| | O.O.O.O.| O.| O.O.O.O.O.}  .O.O.O.| O.O.k   q b.b.c.m.m.m.m.m.",
"m.m.m.m.m.m.m.c.4.,.H i i i i i a [ | | | | | | | | | |  . .} O._ p i i i i i I ,.7.b.m.m.m.m.m.m.m.",
"m.m.m.m.m.m.m.b.n.n.N           X ) O.| | | | | | | | | | | | O.!             R n.n.v.m.m.m.m.m.m.m.",
"m.m.m.m.m.m.m.m.m.b.:.D 6   X , e ` | | | | | | | | | | | | | O.) 1 ; .   0 D 5.n.m.m.m.m.m.m.m.m.m.",
"m.m.m.m.m.m.m.m.c.n.n.n.<.  ; { } } | | | | | | | | } | | | | } | } ` @   6.n.n.n.c.m.m.m.m.m.m.m.m.",
"m.m.m.m.m.m.m.b.z.z.l.z.>.+ r } | | | | | | | | | | | | | | | | | | [ , @ 2.z.z.l.z.b.m.m.m.m.m.m.m.",
"m.m.m.m.m.m.c.k.w * : * f ` [ } | | | | | | | | } O.| | | | | | | | } ` ` s 2 2 * D b.x.m.m.m.m.m.m.",
"m.m.m.m.m.b.n.k.*       i O.| } | | | | | | | | | | | | | | | | | | | | O.1       w c.b.b.m.m.m.m.m.",
"m.m.m.m.b.h.D S b n -   u O.} |  . .O.} | | | | | | | | | | } | | |  .| } e   , m L S G z.v.m.m.m.m.",
"m.m.m.m.n.q.  O `  .;   u O.O.O.O.O.} O.O.O.| | | | | | O.O.O.O.O.O.O. .| e   t O.~   o j.b.m.m.m.m.",
"m.m.m.m.n.9.. + _ O.c i ! O._ a a [ O.v i ! O.| | | | } c i m O._ a a ` O.n u m O.~ . $ j.b.m.m.m.m.",
"m.m.m.m.n.9.  + ` O.O.O.O.O.m   . _ O.,   t O.O.O.O.O.| ,   t O.~   . _ O.O.O.O.O.~   o j.b.m.m.m.m.",
"m.m.m.m.b.h.V A b m m m n ! M B A b n Z B H n m n m m n C B H m M V S M n ! n m ! b V F l.b.m.m.m.m.",
"m.m.m.m.m.b.n.k.:           V b.z.6   7.n.>.          . 8.n.3.  N b.x.6           w c.b.b.m.m.m.m.m.",
"m.m.m.m.m.m.c.z.w * * * : & T n.x.N * 9.n.4.* 2 : 3 2 4 w.n.6.& F n.c.N & 3 * * & D b.c.m.m.m.m.m.m.",
"m.m.m.m.m.m.m.b.z.k.k.k.l.k.x.n.n.z.k.b.n.v.k.l.k.l.k.z.b.n.v.k.z.n.n.z.k.k.k.k.l.z.b.m.m.m.m.m.m.m.",
"m.m.m.m.m.m.m.m.b.b.b.b.b.b.b.m.m.b.b.m.m.m.b.b.b.b.b.b.m.m.m.b.b.m.m.b.b.b.v.b.c.b.m.m.m.m.m.m.m.m.",
"m.m.m.m.m.m.m.m.m.m.m.m.m.m.m.m.m.m.m.m.m.m.m.m.m.m.m.m.m.m.m.m.m.m.m.m.m.m.m.m.m.m.m.m.m.m.m.m.m.m.",
"m.m.m.m.m.m.m.m.m.m.m.m.m.m.m.m.m.m.m.m.m.m.m.m.m.m.m.m.m.m.m.m.m.m.m.m.m.m.m.m.m.m.m.m.m.m.m.m.m.m.",
"m.m.m.m.m.m.m.m.m.m.m.m.m.m.m.m.m.m.m.m.m.m.m.m.m.m.m.m.m.m.m.m.m.m.m.m.m.m.m.m.m.m.m.m.m.m.m.m.m.m.",
"m.m.m.m.m.m.m.m.m.m.m.m.m.m.m.m.m.m.m.m.m.m.m.m.m.m.m.m.m.m.m.m.m.m.m.m.m.m.m.m.m.m.m.m.m.m.m.m.m.m.",
"m.m.m.m.m.m.m.m.m.m.m.m.m.m.m.m.m.m.m.m.m.m.m.m.m.m.m.m.m.m.m.m.m.m.m.m.m.m.m.m.m.m.m.m.m.m.m.m.m.m."
};
