/* XPM */
static char *result[] = {
/* columns rows colors chars-per-pixel */
"50 50 53 1 ",
"  c #2F2824",
". c #332B26",
"X c #362D28",
"o c #382F2A",
"O c #3D332D",
"+ c #40352F",
"@ c #423731",
"# c #453A33",
"$ c #493D35",
"% c #4C3F38",
"& c #4E4138",
"* c #54463D",
"= c #56483F",
"- c #58493F",
"; c #5B4D42",
": c #5E5045",
"> c #615246",
", c #655649",
"< c #6B5B4D",
"1 c #6F5F50",
"2 c #715F50",
"3 c #6F6052",
"4 c #756354",
"5 c #796756",
"6 c #766857",
"7 c #7A6857",
"8 c #7D6C5A",
"9 c #7E715F",
"0 c #816F5D",
"q c #82715E",
"w c #857461",
"e c #887763",
"r c #8B7A66",
"t c #8D7E69",
"y c #917F6A",
"u c #94836D",
"i c #98876F",
"p c #968771",
"a c #988770",
"s c #978972",
"d c #9C8B73",
"f c #9F9078",
"g c #A08F75",
"h c #A09077",
"j c #A4947B",
"k c #A7997E",
"l c #A8997F",
"z c #AB9C82",
"x c #AFA085",
"c c #B0A186",
"v c #B2A489",
"b c #B5A88C",
"n c None",
/* pixels */
"nnnnnnnnnnnnnnnnnnnnnnnnnnnnnnnnnnnnnnnnnnnnnnnnnn",
"nnnnnnnnnnnnnnnnnnnnnnnnnnnnnnnnnnnnnnnnnnnnnnnnnn",
"nnnnnnnnnnnnnnnnnnnnnnnnnnnnnnnnnnnnnnnnnnnnnnnnnn",
"nnnnnnnnnnnnnnnnnnnnnnnnnnnnnnnnnnnnnnnnnnnnnnnnnn",
"nnnnnnnnnnnnnnnnnnnnnnnnnnnnnnnnnnnnnnnnnnnnnnnnnn",
"nnnnnnnnnnnnnnnnnnnnnnnnnnnnnnnnnnnnnnnnnnnnnnnnnn",
"nnnnnnnnnnnnnnnnnnnnnnnnnnnnnnnnnnnnnnnnnnnnnnnnnn",
"nnnnnnnnnnnnnnnnnnnnnnnnnnnnnnnnnnnnnnnnnnnnnnnnnn",
"nnnnnnnnnnnnnnnnnnnnnnnnnnnnnnnnnnnnnnnnnnnnnnnnnn",
"nnnnnnnnnnnnnnnnnnnnnnnnnnnnnnnnnnnnnnnnnnnnnnnnnn",
"nnnnnnnnnnnnnnnnnnnnnnnnnnnnnnnnnnnnnnnnnnnnnnnnnn",
"nnnnnnnnnnnnnnnnnnnnnnnn0wqq87nnnnnnnnnnnnnnnnnnnn",
"nnnnnnnnnnnnnnnnnnnnnn0rrydgguw7nnnnnnnnnnnnnnnnnn",
"nnnnnnnnnnnnnnnnnnnnn1fhye0yddgi%nnnnnnnnnnnnnnnnn",
"nnnnnnnnnnnnnnnnnnnnn1zkfaysjzt,Onnnnnnnnnnnnnnnnn",
"nnnnnnnnnnnnnnnnnnnnn>wzzzzzjr>=;nnnnnnnnnnnnnnnnn",
"nnnnnnnnnnnnnnnnnnn2er58ukzr,**;4w7nnnnnnnnnnnnnnn",
"nnnnnnnnnnnnnnnnnnwpdgr5408;=;;4udur5nnnnnnnnnnnnn",
"nnnnnnnnnnnnnnnnn0ddkdar85<=:4rssddd4Xnnnnnnnnnnnn",
"nnnnnnnnnnnnnnnn;pdaddzhar85radaddj8#Xnnnnnnnnnnnn",
"nnnnnnnnnnnnnnnn;fckzzkhdddaddahhkt%OOXnnnnnnnnnnn",
"nnnnnnnnnnnnnnnn,wdcvjajhgdaahpr04;@@O.nnnnnnnnnnn",
"nnnnnnnnnnnnnnnn<75whzjpypdreyaj<=$*>:Onnnnnnnnnnn",
"nnnnnnnnnnnnnnn<14445r8errypadzr;*;qps6@nnnnnnnnnn",
"nnnnnnnnnnnnnn0uyw5521<dkgddhzt;&%4kfdd9nnnnnnnnnn",
"nnnnnnnnnnnnn0dhdauw4>28hcczzt;;**<hzxxt+nnnnnnnnn",
"nnnnnnnnnnnnrhddadaar1,45rkh1;%;>,44qdd>#nnnnnnnnn",
"nnnnnnnnnnnnqxkdagdddr;44471;;>8rrr7444;#nnnnnnnnn",
"nnnnnnnnnnnn<ixjdddjh5*:222>%>eadidur7>=$.nnnnnnnn",
"nnnnnnnnnnn>47dxjdjl8;%%,2<;;4zzkkjkki<==+nnnnnnnn",
"nnnnnnnnnnn>24yizclq;%%;yae2>5pvzzzvs4-=*Onnnnnnnn",
"nnnnnnnnnnn>4q07rzq;;*>yddape08azjz8;***%onnnnnnnn",
"nnnnnnnnnnn>4r757r>**>usdkdddu66dp<-=@%=%+.nnnnnnn",
"nnnnnnnnnnn=7e7776-**sjdiruddd3,q8*=*@$=$+.nnnnnnn",
"nnnnnnnnnnnO4045q>=&&svserudjs:>7q,==%@&++.nnnnnnn",
"nnnnnnnnnnnn#><4q:##;88tlllcf<**1q1*==O#+onnnnnnnn",
"nnnnnnnnnnnnnn@:*@@O>4,<uxlu>**&15,-=*OX.nnnnnnnnn",
"nnnnnnnnnnnnnnnnXoo.>2,45r8==*&#-24-&O.nnnnnnnnnnn",
"nnnnnnnnnnnnnnnnnnn.;,<4407-=*@OX##+Onnnnnnnnnnnnn",
"nnnnnnnnnnnnnnnnnnnn*>4445q<&@OXnnnnnnnnnnnnnnnnnn",
"nnnnnnnnnnnnnnnnnnnnn$>444w<+OXnnnnnnnnnnnnnnnnnnn",
"nnnnnnnnnnnnnnnnnnnnnn+&&&=#.nnnnnnnnnnnnnnnnnnnnn",
"nnnnnnnnnnnnnnnnnnnnnnnnnnnnnnnnnnnnnnnnnnnnnnnnnn",
"nnnnnnnnnnnnnnnnnnnnnnnnnnnnnnnnnnnnnnnnnnnnnnnnnn",
"nnnnnnnnnnnnnnnnnnnnnnnnnnnnnnnnnnnnnnnnnnnnnnnnnn",
"nnnnnnnnnnnnnnnnnnnnnnnnnnnnnnnnnnnnnnnnnnnnnnnnnn",
"nnnnnnnnnnnnnnnnnnnnnnnnnnnnnnnnnnnnnnnnnnnnnnnnnn",
"nnnnnnnnnnnnnnnnnnnnnnnnnnnnnnnnnnnnnnnnnnnnnnnnnn",
"nnnnnnnnnnnnnnnnnnnnnnnnnnnnnnnnnnnnnnnnnnnnnnnnnn",
"nnnnnnnnnnnnnnnnnnnnnnnnnnnnnnnnnnnnnnnnnnnnnnnnnn"
};
