/* XPM */
static char *result[] = {
/* columns rows colors chars-per-pixel */
"50 50 162 2 ",
"   c #0F3C0F",
".  c #10350F",
"X  c #10360F",
"o  c #0F3B10",
"O  c #103610",
"+  c #103710",
"@  c #103810",
"#  c #103B10",
"$  c #103C10",
"%  c #103D12",
"&  c #113D12",
"*  c #113D13",
"=  c #123D13",
"-  c #113E13",
";  c #123E13",
":  c #0F440F",
">  c #0E460F",
",  c #0E480D",
"<  c #0E480E",
"1  c #0E490E",
"2  c #0E4A0E",
"3  c #0E4B0E",
"4  c #0E4B0F",
"5  c #0E4C0F",
"6  c #0E4D0F",
"7  c #0D4F0F",
"8  c #0F4411",
"9  c #0E4612",
"0  c #0E4712",
"q  c #0E4812",
"w  c #0E4B12",
"e  c #0D4F10",
"r  c #0E4C12",
"t  c #0D4F12",
"y  c #0E4E12",
"u  c #0E4F12",
"i  c #0F4F14",
"p  c #104E11",
"a  c #104F12",
"s  c #144A19",
"d  c #144B19",
"f  c #154C1A",
"g  c #154D1A",
"h  c #154F1B",
"j  c #0D5110",
"k  c #0D5111",
"l  c #0D5210",
"z  c #0D5211",
"x  c #0D5311",
"c  c #0D5112",
"v  c #0D5113",
"b  c #0D5212",
"n  c #0D5312",
"m  c #0F5313",
"M  c #0D5411",
"N  c #0D5611",
"B  c #0C5711",
"V  c #0D5512",
"C  c #0D5413",
"Z  c #0E5412",
"A  c #0D5612",
"S  c #0D5712",
"D  c #0D5812",
"F  c #0D5912",
"G  c #0C5A13",
"H  c #0C5B13",
"J  c #0B5E13",
"K  c #0C5C13",
"L  c #0C5D13",
"P  c #0C5E13",
"I  c #0F5814",
"U  c #0C5B14",
"Y  c #0F5A15",
"T  c #0F5816",
"R  c #0C5D14",
"E  c #0D5D15",
"W  c #0C5E14",
"Q  c #0C5F14",
"!  c #0D5E15",
"~  c #0C5F15",
"^  c #0E5E16",
"/  c #0E5F16",
"(  c #0F5F17",
")  c #105012",
"_  c #115517",
"`  c #14511A",
"'  c #15521C",
"]  c #15571D",
"[  c #17561E",
"{  c #17571E",
"}  c #145A1A",
"|  c #14581C",
" . c #16581D",
".. c #165F1D",
"X. c #0C6014",
"o. c #0C6114",
"O. c #0D6015",
"+. c #0D6016",
"@. c #0D6116",
"#. c #0E6116",
"$. c #0E6117",
"%. c #0E6217",
"&. c #0F6318",
"*. c #0F6319",
"=. c #10641A",
"-. c #11661B",
";. c #12621C",
":. c #15611D",
">. c #16611F",
",. c #14631F",
"<. c #13641D",
"1. c #12661C",
"2. c #12671C",
"3. c #12671D",
"4. c #13671D",
"5. c #14641E",
"6. c #14661E",
"7. c #15661F",
"8. c #13681D",
"9. c #14691F",
"0. c #175A20",
"q. c #185C21",
"w. c #185D21",
"e. c #185E22",
"r. c #185F22",
"t. c #195F22",
"y. c #166020",
"u. c #166420",
"i. c #176421",
"p. c #186022",
"a. c #186521",
"s. c #186522",
"d. c #186622",
"f. c #196324",
"g. c #1A6325",
"h. c #156A20",
"j. c #166822",
"k. c #176923",
"l. c #176A23",
"z. c #176C23",
"x. c #176D24",
"c. c #176E24",
"v. c #186F26",
"b. c #196F27",
"n. c #1B6F29",
"m. c #1C6D29",
"M. c #1C6E29",
"N. c #1A7128",
"B. c #1B7029",
"V. c #1B7129",
"C. c #1B7229",
"Z. c #1B722A",
"A. c #1C7029",
"S. c #1C732A",
"D. c #1C742B",
"F. c #1D742C",
"G. c #1D752C",
"H. c #1D752D",
"J. c #1E752D",
"K. c #1D762D",
"L. c #1E762D",
"P. c None",
/* pixels */
"P.P.P.P.P.P.P.P.P.P.P.P.P.P.P.P.P.P.P.P.P.P.P.P.P.P.P.P.P.P.P.P.P.P.P.P.P.P.P.P.P.P.P.P.P.P.P.P.P.P.",
"P.P.P.P.P.P.P.P.P.P.P.P.P.P.P.P.P.P.P.P.P.P.P.P.P.P.P.P.P.P.P.P.P.P.P.P.P.P.P.P.P.P.P.P.P.P.P.P.P.P.",
"P.P.P.P.P.P.P.P.P.P.P.P.P.P.P.P.P.P.P.P.P.P.P.P.P.P.P.P.P.P.P.P.P.P.P.P.P.P.P.P.P.P.P.P.P.P.P.P.P.P.",
"P.P.P.P.P.P.P.P.P.P.P.P.P.+ + + + + P.P.P.P.P.P.P.P.P.P.P.P.P.P.+ + + + + P.P.P.P.P.P.P.P.P.P.P.P.P.",
"P.P.P.P.P.P.P.P.P.P.P.P.P.+ + + + + P.P.P.P.P.P.P.P.P.P.P.P.P.P.+ + + + + P.P.P.P.P.P.P.P.P.P.P.P.P.",
"P.P.P.P.P.P.P.P.P.P.P.P.P.@ @ @ @ @ P.P.P.P.P.P.P.P.P.P.P.P.P.P.@ @ @ @ @ P.P.P.P.P.P.P.P.P.P.P.P.P.",
"P.P.P.P.P.P.P.P.P.P.P.+ - t.f.f.f.f.s X + P.P.P.P.P.P.P.P.+ X s f.f.f.f.t.- + P.P.P.P.P.P.P.P.P.P.P.",
"P.P.P.P.P.P.P.P.P.P.+ + ; M.K.G.G.G.g X + P.P.P.P.P.P.P.P.+ X g G.G.G.K.M.; + + P.P.P.P.P.P.P.P.P.P.",
"P.P.P.P.P.P.P.P.P.P.+ + ; m.G.F.F.F.f X + P.P.P.P.P.P.P.P.+ . f F.F.F.F.m.- + + P.P.P.P.P.P.P.P.P.P.",
"P.P.P.P.P.P.P.P.P.P.+ + % ;.8.4.4.4.T t y # + P.P.P.P.+ - 0.q.y.4.4.b.G.m.- + + P.P.P.P.P.P.P.P.P.P.",
"P.P.P.P.P.P.P.P.P.P.+ + $ G Q Q Q Q Q X.U $ + + P.P.+ + ; M.L.x.Q Q z.H.m.- + + P.P.P.P.P.P.P.P.P.P.",
"P.P.P.P.P.P.P.P.P.P.O X o G Q Q Q Q Q Q G $ + + P.P.+ + ; m.J.x.Q Q x.J.m.= O O P.P.P.P.P.P.P.P.P.P.",
"P.P.P.P.P.P.P.P.+ + h [ ] ! Q Q Q Q 1.h.5.& + + P.P.+ + & 5.h.1.Q Q 1.h.6.i w 0 + + P.P.P.P.P.P.P.P.",
"P.P.P.P.P.P.P.P.+ + t.L.Z.%.Q Q Q Q x.J.m.; + + P.P.+ + $ G Q Q Q Q Q Q Q X.X.v + + P.P.P.P.P.P.P.P.",
"P.P.P.P.P.P.P.P.+ + r.H.C.%.Q Q Q Q x.J.m.* . X P.P.O O # U X.Q Q Q Q Q Q Q X.v + + P.P.P.P.P.P.P.P.",
"P.P.P.P.P.P.P.P.+ + r.H.V.Y N A A A <.z.j.' h d P.P.8 9 q V A F Q Q Q Q Q Q X.v + + P.P.P.P.P.P.P.P.",
"P.P.P.P.P.P.P.P.+ + r.H.n.p 1 1 1 1 S Q $.C.K.r.+ + v X.L 4 < j Q Q Q Q Q Q X.v + + P.P.P.P.P.P.P.P.",
"P.P.P.P.P.P.P.P.+ + r.H.n.p < 1 1 1 S Q $.C.H.e.+ + v X.K 4 < j Q Q Q Q Q Q Q c + + P.P.P.P.P.P.P.P.",
"P.P.P.P.P.P.P.P.+ + r.H.B.m 7 e e e F Q $.C.H.p.    n X.R j e x F F L Q O.=.-._ + + P.P.P.P.P.P.P.P.",
"P.P.P.P.P.P.P.P.+ + r.H.C.$.Q Q Q Q Q Q $.C.H.a.1 1 S Q Q Q Q S 1 1 S Q $.V.G.e.+ + P.P.P.P.P.P.P.P.",
"P.P.P.P.P.P.P.P.+ + r.H.C.$.Q Q Q Q Q Q $.C.H.a.1 1 S Q Q Q Q S 1 1 S Q $.C.H.r.+ + P.P.P.P.P.P.P.P.",
"P.P.P.P.P.P.P.P.+ + r.H.C.$.Q Q Q Q Q Q $.C.H.a.1 1 Y *.&.~ Q F 6 6 F Q $.C.H.r.+ + P.P.P.P.P.P.P.P.",
"P.P.P.P.P.P.P.P.+ + r.H.C.$.Q Q Q Q Q Q $.C.H.a.1 1 i.D.N.$.Q Q W W Q Q $.C.H.r.+ + P.P.P.P.P.P.P.P.",
"P.P.P.P.P.P.P.P.+ + r.H.C.%.Q Q Q Q Q Q $.C.J.s.1 1 a.H.C.$.Q Q Q Q Q Q $.C.H.r.+ + P.P.P.P.P.P.P.P.",
"P.P.P.P.P.P.P.P.+ + r.H.V./ K R Q Q Q Q #.b.Z.u.5 5 d.H.C.$.Q Q Q Q Q Q $.C.H.r.+ + P.P.P.P.P.P.P.P.",
"P.P.P.P.P.P.P.P.+ + r.H.n.) 3 z Q Q Q Q Q #.%.+.K K z.H.C.$.Q Q Q Q Q Q $.C.H.r.+ + P.P.P.P.P.P.P.P.",
"P.P.P.P.P.P.P.P.+ + r.H.n.p < j Q Q Q Q Q Q Q Q Q Q x.H.C.$.Q Q Q Q Q Q $.C.H.r.+ + P.P.P.P.P.P.P.P.",
"P.P.P.P.P.P.P.P.+ + r.H.n.a 2 l Q Q Q Q Q Q Q Q W W z.H.C.$.Q Q Q Q Q Q $.C.H.r.+ + P.P.P.P.P.P.P.P.",
"P.P.P.P.P.P.P.P.+ + r.H.V.^ H K Q Q Q Q Q Q Q F 6 6 d.H.C.$.Q Q Q Q Q Q $.C.H.r.+ + P.P.P.P.P.P.P.P.",
"P.P.P.P.P.P.P.P.+ + r.H.C.%.Q Q Q Q Q Q Q Q Q S 1 1 a.H.C.$.Q Q Q Q Q Q $.C.H.r.+ + P.P.P.P.P.P.P.P.",
"P.P.P.P.P.P.P.P.+ + r.H.C.$.Q Q Q Q Q Q Q Q X.S 1 1 a.H.C.$.Q Q Q Q Q Q $.C.H.r.+ + P.P.P.P.P.P.P.P.",
"P.P.P.P.P.P.P.P.+ + r.H.C.$.Q Q Q Q Q Q @.z.v.:.1 1 a.H.C.$.Q F e e F Q $.C.H.r.+ + P.P.P.P.P.P.P.P.",
"P.P.P.P.P.P.P.P.+ + r.H.C.$.Q Q Q Q Q Q $.Z.J.s.1 1 a.H.C.$.Q S 1 1 S Q $.C.H.r.+ + P.P.P.P.P.P.P.P.",
"P.P.P.P.P.P.P.P.+ + r.K.C.$.Q Q Q Q Q Q $.C.H.a.1 1 a.H.C.$.Q S 1 1 S Q $.C.K.r.+ + P.P.P.P.P.P.P.P.",
"P.P.P.P.P.P.P.P.P.P.d h ` E Q G l l G Q $.C.H.l.A A l.H.C.$.Q K A A <.z.j.' h d P.P.P.P.P.P.P.P.P.P.",
"P.P.P.P.P.P.P.P.P.P.X . o G X.S 1 1 S Q $.C.H.x.Q Q x.H.C.$.Q Q Q Q x.J.m.* . X P.P.P.P.P.P.P.P.P.P.",
"P.P.P.P.P.P.P.P.P.P.+ + $ G Q B , , S Q $.C.H.x.Q Q x.H.C.%.Q Q Q Q x.H.m.- + + P.P.P.P.P.P.P.P.P.P.",
"P.P.P.P.P.P.P.P.P.P.+ + & 5.h.7.....( Q $.C.H.k.M M k.H.B.I M D Q Q x.H.m.- + + P.P.P.P.P.P.P.P.P.P.",
"P.P.P.P.P.P.P.P.P.P.+ + ; m.H.F.H.H.3.P $.C.H.a.1 1 a.H.n.p < j Q Q x.H.m.- + + P.P.P.P.P.P.P.P.P.P.",
"P.P.P.P.P.P.P.P.P.P.+ + ; M.K.H.H.H.2.J #.C.H.a.1 1 s.L.A.p < j X.X.c.L.M.; + + P.P.P.P.P.P.P.P.P.P.",
"P.P.P.P.P.P.P.P.P.P.P.+ - 0.w.q.q.q.,.3.9.S.H.a.1 1 } i.>.Z j k u u | w.0.- + P.P.P.P.P.P.P.P.P.P.P.",
"P.P.P.P.P.P.P.P.P.P.P.P.P.+ + + + + e.H.F.F.H.a.1 1 1 1 4 L X.v + + + + + P.P.P.P.P.P.P.P.P.P.P.P.P.",
"P.P.P.P.P.P.P.P.P.P.P.P.P.+ + + + + t.K.G.G.L.d.1 1 1 1 5 L o.v + + + + + P.P.P.P.P.P.P.P.P.P.P.P.P.",
"P.P.P.P.P.P.P.P.P.P.P.P.P.+ + + + + { f.f.f.g. .: : : : > b C r + + + + + P.P.P.P.P.P.P.P.P.P.P.P.P.",
"P.P.P.P.P.P.P.P.P.P.P.P.P.P.P.P.P.P.@ @ @ @ @ @ + + + + + @ @ @ P.P.P.P.P.P.P.P.P.P.P.P.P.P.P.P.P.P.",
"P.P.P.P.P.P.P.P.P.P.P.P.P.P.P.P.P.P.+ + + + + + + + + + + + + + P.P.P.P.P.P.P.P.P.P.P.P.P.P.P.P.P.P.",
"P.P.P.P.P.P.P.P.P.P.P.P.P.P.P.P.P.P.+ + + + + + + + + + + + + + P.P.P.P.P.P.P.P.P.P.P.P.P.P.P.P.P.P.",
"P.P.P.P.P.P.P.P.P.P.P.P.P.P.P.P.P.P.P.P.P.P.P.P.P.P.P.P.P.P.P.P.P.P.P.P.P.P.P.P.P.P.P.P.P.P.P.P.P.P.",
"P.P.P.P.P.P.P.P.P.P.P.P.P.P.P.P.P.P.P.P.P.P.P.P.P.P.P.P.P.P.P.P.P.P.P.P.P.P.P.P.P.P.P.P.P.P.P.P.P.P.",
"P.P.P.P.P.P.P.P.P.P.P.P.P.P.P.P.P.P.P.P.P.P.P.P.P.P.P.P.P.P.P.P.P.P.P.P.P.P.P.P.P.P.P.P.P.P.P.P.P.P."
};
