/* XPM */
static char *result[] = {
/* columns rows colors chars-per-pixel */
"50 50 138 2 ",
"   c #0067B2",
".  c #006CB5",
"X  c #006FB8",
"o  c #0071B7",
"O  c #0175BB",
"+  c #0478BE",
"@  c #0A7BBF",
"#  c #0077C3",
"$  c #027CC3",
"%  c #0A7DC1",
"&  c #007ECB",
"*  c #0580C7",
"=  c #0B81C5",
"-  c #0183CD",
";  c #0B85CA",
":  c #0588CF",
">  c #0D89CE",
",  c #1383C4",
"<  c #1A86C6",
"1  c #1E88C7",
"2  c #148BCD",
"3  c #1C8BCA",
"4  c #0186D0",
"5  c #0389D2",
"6  c #0B8DD3",
"7  c #118ED2",
"8  c #0C90D6",
"9  c #0593DC",
"0  c #0C94DB",
"q  c #0D99DF",
"w  c #1392D6",
"e  c #1B94D5",
"r  c #1F98D7",
"t  c #1395DA",
"y  c #1C97D9",
"u  c #1499DD",
"i  c #1A9BDD",
"p  c #2089C7",
"a  c #228DCB",
"s  c #288DC9",
"d  c #2791CD",
"f  c #2B93CF",
"g  c #2394D3",
"h  c #2B95D0",
"j  c #2799D7",
"k  c #2E98D3",
"l  c #239CDC",
"z  c #2A9EDC",
"x  c #339AD3",
"c  c #399FD7",
"v  c #369FD8",
"b  c #23A0DF",
"n  c #2BA1DE",
"m  c #3BA0D7",
"M  c #34A3DD",
"N  c #3CA4DB",
"B  c #0E9CE2",
"V  c #139DE2",
"C  c #1A9FE1",
"Z  c #15A1E6",
"A  c #1BA3E5",
"S  c #16A5E9",
"D  c #1CA6E9",
"F  c #1DA9EC",
"G  c #1DADF0",
"H  c #24A4E4",
"J  c #2EA4E1",
"K  c #22ABEC",
"L  c #2BACEA",
"P  c #33A6E1",
"I  c #39A7E0",
"U  c #35A9E4",
"Y  c #3CABE4",
"T  c #31ADEA",
"R  c #37B0EB",
"E  c #3DB4ED",
"W  c #20AFF1",
"Q  c #25B3F4",
"!  c #2CB5F3",
"~  c #33B4F0",
"^  c #39B6F0",
"/  c #36BAF6",
"(  c #3CBAF4",
")  c #43A6DB",
"_  c #48A7DB",
"`  c #46A9DE",
"'  c #4AABDE",
"]  c #52AEDF",
"[  c #43ADE4",
"{  c #4BAEE1",
"}  c #52AFE0",
"|  c #46B1E7",
" . c #4CB1E5",
".. c #43B4EC",
"X. c #4BB4E9",
"o. c #46B8EE",
"O. c #4CB9EE",
"+. c #53B2E4",
"@. c #59B7E6",
"#. c #5CB8E6",
"$. c #53B6E9",
"%. c #54BAEC",
"&. c #5BBCEC",
"*. c #44BDF4",
"=. c #4BBDF1",
"-. c #54BEF1",
";. c #58BFF1",
":. c #62BEEB",
">. c #5FC0EF",
",. c #4EC0F4",
"<. c #4DC5FA",
"1. c #53C2F5",
"2. c #5CC3F3",
"3. c #53C6F9",
"4. c #52C9FD",
"5. c #5CCCFC",
"6. c #65C1ED",
"7. c #6BC4EE",
"8. c #64C4F1",
"9. c #6BC6F1",
"0. c #66C8F6",
"q. c #6DCAF5",
"w. c #6BCDF9",
"e. c #74CBF4",
"r. c #7BCEF5",
"t. c #70CEF8",
"y. c #6CD1FD",
"u. c #7BD0F7",
"i. c #74D2FB",
"p. c #7CD2F9",
"a. c #7BDAFF",
"s. c #83D6FA",
"d. c #89D7FA",
"f. c #84DAFE",
"g. c #8CDBFD",
"h. c #92DFFF",
"j. c #94E2FF",
"k. c #98E4FF",
/* pixels */
"e.C B - 5 4 5 4 - 6.i - - - 9 0 u 4 $.9.2.B - 5 5 5 5 5 5 A > o o O O I s.:.7.:.a $ 4 4 4 4 6 - t u.",
"6.9.6 4 5 5 4 w P p.p.P P P A F D V 0._ F C V : - 5 5 5 4 $ y w > l P ;.I O # 6 X.l 4 5 5 4 & t $.} ",
"D y.e.6 4 4 6 e.6.Y [ _ %.$.[ $ O ; M p.,.8 t t 5 5 - - 5 * - V ( 2.1.5 4 - : - l 2.- 5 - 6 $.+.% 6 ",
"8 A <.2.7 6 t.:.B Z -   u 5 f _ O O . 9.s.@.s C q - b M - 5 - y | 5 9 A 5 5 5 4 5 [ P & X.&.v % 7 i ",
"O $ 5 %.u.%.l 5 8 q D K t + O x [ O +.e.a 3 _ q.8.9.X.Y 0.l & [ X.4 0 F 5 5 4 5 4 5 X.q.x < O O A ; ",
"+ + O @ e.*.5 4 - - $ = + O + o c s.e.1 O O O L u 6 5 5 6 | P 1.A K D 5 - 4 5 5 5 & [ h.< . O . A > ",
"O O + O { w.V 9 - $ O O + + @ O < r.f O # + O 6 V B 8 5 B A w.t O O + - 5 5 5 5 5 4 | d., 6 7 7 i % ",
"# O # O : t.U V 8 + + + O O o o # %.Y O + + O > A Z A Z t l :.o O O O + * - 5 5 6 & Y h.J u u C * O ",
"+ + + O > f.%.V Z O O O o t A A t $.a.H O + O A > & 5 A C = 8.A C A % O O $ - 5 - t t.X.u O X X O $ ",
"+ O O O > a.%.q u * * $ t t ; > * + 6.( * + O A ; - 5 5 9 L 8.; > > A % + O - 5 & [ 8.- - * # + + O ",
"+ O + O = r.| S A 0 A K w O + + + . } f Z i w 2 O $ - 5 - t 9., . . $ V X o $ 7 U u.r.| t 5 $ O + O ",
"+ + + O e 0.Z F F A + O O + 5 - O , e.a o ; A # O O $ 5 - 6 e. .x v m =.x x x e.8.P z 8.t.6 B % o O ",
"O o . > i 0.t - - 4 $ O $ - 5 5 O ' 8.$ - + ; u $ O $ 4 - 6 :., { { )  .-.7.:.I 4 4 4 & P Y V B t 0 ",
"@.@.@.( %.6.o $ : 5 5 - : 5 - 5 & [ 9.O.6 4 $ D ; O O v >.%.z O X X X * 9 ) x # 5 5 4 V L 8.y 0.y.y.",
"1 z U  .d.e.= o & - - 4 - - 5 6 z t.Y l $.5 4 5 H 3 :.[ i n %.7.v O O O e 5.k & 5 4 4 K V l p.} , p ",
"O O 6 w , #.e.%.w l l l l l l 6.{ 6 5 - n &.w l 2.2.w 5 - - 7 + { ) < x :.=.6 O 5 - C V & l :.O O O ",
"+ + O A ; . g ;.p.;.%.&.%.&.%.$ O O $ - 6 q.g.0.t D 4 4 5 - O . ) j.6._ O u w o - 4 A V - t  .t - $ ",
"$ + O > y & 4 - z [ - 4 4 - $ + # + O + $ ; 9.k 4 K 5 5 5 $ - O _ :.O O X i w o + $ D q - 4 P X.4 5 ",
"- + + $ B Z 5 5 4 P X.- $ $ + O + O + O + . _ x $ K - 5 5 5 D 0 { x X O ; i $ O + - 5 D 8 & U  .& 5 ",
"5 * $ 5 - 0 F G B % :.% O + + + O + + + + o  .N 0 V 5 V G F 0 V A { a ; Z 5 $ + $ 5 - 9 Z l %.6 4 5 ",
"5 5 - 5 5 5 0 F Q $ a +.O O + O + + O O . O _ E - A F t 5 6 - 0 S 7 &.&.t - 5 4 - 5 5 - 5 <.%.& 5 5 ",
"5 - 8 *.4.4./ 5 V 6 1 :.o + O + + O 3 m f @._ O O + + + - 5 5 4 0 F Q t  .w 5 5 5 5 5 5 5 / 9.w - 5 ",
"- 8 t.i.[ _ { X.w F { h O + O + O 1 p.#.=.7._ . + + O * 5 4 5 5 5 - V 9 P $.& 5 5 - - - 4 1.k.[ . $ ",
"8 9.y.Q & X 8 U X.w.9.X + + # O , p.} 8 - + { 3 o + O - 5 5 4 5 5 5 4 V H | l 4 - i 8.i | u.b [ #.< ",
"p.#.i u + $ 5 - w n 7.+ O + O . N #.O D % . ` N + O O $ 5 5 4 5 5 5 - 5 ( | | 8.8.X.L 2.Y 8 - 2 a } ",
"#.O i 7 o 5 - 5 - 5 q.:.$ O , x p.x t ; + + + _ :.f , O - 5 5 - - O & 5 ..Y - w 6 C B 5  .y - O O a ",
"O O 7 t + - 5 5 5 5 6 t.8.z t.i.O.t t + O + O O @ @.' M 8 & 5 I M m n l y.Z - 5 & V A & w 8.* O # :.",
"+ + . A > O * - $ 5 - w [ e.%.V Z = C > O + O # +   h 9.[ X. .X.` _ ) X...: * 5 5 6 A 9 6 :.# O + 7.",
"+ o 7 t + O O O O $ 5 - l Y - - - o A > O O O O O % e.c 2 [ J # : B C t.Q > . $ - & Z V 6 8.5 $ O 9.",
"+.+ u w o + + + + - 5 - X.r.i 6 - $ A ; O + O ; @.&.l 7 - - & B i ; e 6.$ t K ; O $ S 0 6 8.5 4 # < ",
"g.i.y o + + O O * 5 5 5 4 &.t.%.> Z 2 o # $ 6 X.b 6 4 4 5 5 - V i   % @., O = C $ 7 A - 6 8.5 4 6 X ",
"&.8.' @ O + + + - 5 4 5 & 2.g i 9.A t $ $ 5 8.P & 4 5 5 5 5 4 9 t % O , +.%   $ K ; 8 $ z X.4 4 4 k ",
"- q 1 { = o o o * - - - b ' = : 6.9.A Z B R k.n - 5 5 5 - $ - O y t o o k e._ ` > % 1.@.1.- - - P { ",
"i y q 0.R u D A D F 5 - %.x o - 0 i.7.2.y.=.&.P - 5 - $ + + + o u w o O k 6.h ,.+.e.2.n q S S E ) O ",
"= @ ; $.M = * - = ; q n s.f O 0 Z 8 l l i A C $.e 9 K w O + O O t 7 O . N `   Z M d.| - w i 0 1.k t ",
"+ + o + @.7.p a 3 1 M d.3.8 C A - - - - $ > B O.U S 5 V w O   7 C O O x d.x o = 0 N r.>.6.&.q._ t 2 ",
"+ o $ $ * %.>.%.%.&.%.q.) 6 w + + + O O + O 8 F 8.5 5 4 V t 7 u ; . h &.m O + o $ =.| - 5 - P 5.5 O ",
"+ * - 5 5 - - - 4 - & P _ . K $ O O + + + O * 4 9.| & 4 & G 0 l _ ' _ O O O $ - $ M X.- 5 - P a.2 O ",
"- 5 5 5 - - 5 5 5 5 - Y _ O H * O + O + O O $ 5 8.X.%.&.;.8.+.:.j.+.O O $ - - 5 5 *.X.- 5 5 6 6.9.% ",
"5 : 5 5 5 5 5 5 5 - l [ m 6.j t + @ O O % = = 7 &.6 l l l ^ b | %.- + + - 5 5 8 ~ -.5 5 - 5 - Z T &.",
"- 4 & # 5 5 5 5 # a +.+ + , _ J V   , h @.:.:.6.y 4 4 - 4 F - M | & 6 5 5 5 D S b &.& $ # * 5 5 V t.",
"P P N % # 4 & 4 g } % O O O f %.o.x { @.% # O * 5 4 5 5 4 K q r $.6 & 4 & V 9 & Y [ $ + + O $ 4 5 9.",
"+.-.' { {  . .X.X.; # O + + :.3 %.{ < . O O O - 5 5 5 4 5 F H 9 y X.X. .X.-.-.[ x X + O O O O $ $ 9.",
"* V   a c x v U 6 Z A O O O a O.B   O + + + O - 4 4 5 5 5 D # i 9 ;.X.J P o...e.#.m O + + O O O m c ",
"> Q 7 ) :.@.&.z V V V i @ % +.P H l % % O X $ w 6 u K D F 2 + + 0 0.g & - V 5 , a m 6.#.:.:.6.6.c O ",
"X #  .M K ! u ..f.*.S 3.u.w.i.&.;.0.8.e.h < { 0.8.8.%.H > . O . # :.e.t.! 6 + O O O , , % x :.+ O X ",
"x _ n - 4 5 F G ..t.$.p.R F D 5 4 C B [ 8.u.l 4 5 - e &.N x m k :.9.% :.e., O + O + O O O , +.= 3 c ",
"X.P - - 4 - V A & 8.%.l - - 4 5 4 0 C 4 e 2.B 6 4 Z Z B U { { _ { < X @ :._ O + + O + O O O 2 X.t.;.",
"- - u F D 4 V Z 4 8.5 - 5 5 5 5 - - 0 Z b 2.0 D F V u V V $ . . X O + X k ' X + + O O $ - ; 4 [ g.7 ",
"5 0 A 9 0 F Q V - 8.w 4 5 5 4 5 5 5 - 0 q.&.& 8 0 - - - 9 A % + + O + O k s.a O + O $ 5 5 5 5 6 &.b "
};
